<svg width="800" height="300" viewBox="0 0 800 300" fill="none" xmlns="http://www.w3.org/2000/svg">
  <rect width="800" height="300" fill="#F4E9DC"/>
  <g stroke="#1E2D3B" stroke-width="8" fill="none" stroke-linecap="round" stroke-linejoin="round">
    <path d="M80 50V140"/>
    <path d="M60 50V95"/>
    <path d="M80 50V95"/>
    <path d="M100 50V95"/>
    <path d="M80 140V240"/>
    <path d="M70 240C70 255 90 255 90 240V220C90 205 70 205 70 220V240Z"/>
    <path d="M430 40H500L510 95V140C510 170 495 190 495 210V230"/>
    <path d="M495 230V245"/>
    <path d="M460 245H530"/>
    <path d="M415 95C430 102 455 102 470 95"/>
    <path d="M160 180C210 90 310 90 350 150C385 200 345 230 300 200C250 165 205 195 220 230C235 265 315 260 360 220"/>
    <path d="M550 190C575 130 630 120 670 80C665 130 645 170 620 205"/>
    <path d="M610 205C640 165 680 160 720 130C710 175 675 210 635 232"/>
    <path d="M160 230C250 290 450 300 610 245"/>
  </g>
  <circle cx="140" cy="40" r="10" fill="#1E2D3B"/>
  <text x="400" y="210" text-anchor="middle" font-size="76" font-family="Cormorant Garamond, serif" fill="#C25E3C" font-weight="700" letter-spacing="3">MESCLARI</text>
  <text x="400" y="252" text-anchor="middle" font-size="26" font-family="Inter, sans-serif" fill="#C25E3C" letter-spacing="8">COCINA Y CULTURA</text>
</svg>
